<svg width="446" height="562" viewBox="0 0 446 562" fill="none" xmlns="http://www.w3.org/2000/svg">
<g filter="url(#filter0_d_462_2238)">
<path d="M91.3196 34.1849H356.361L382.298 80.2018V113.643L410.195 142.183V421.032L380.776 448.792V486.012L355.272 527.815H90.4437L63.7211 483.429V448.526L35.8076 420.108L35.81 142.767L63.4906 114.564V80.1653L91.3196 34.1849Z" fill="black" fill-opacity="0.2" shape-rendering="crispEdges"/>
<path d="M381.798 113.643V113.847L381.94 113.993L409.695 142.387V420.817L380.433 448.428L380.276 448.576V448.792V485.871L354.991 527.315H90.7263L64.2211 483.29V448.526V448.322L64.0778 448.176L36.3076 419.904L36.31 142.971L63.8475 114.915L63.9906 114.769V114.564V80.3049L91.6014 34.6849H356.069L381.798 80.333V113.643Z" stroke="white" shape-rendering="crispEdges"/>
</g>
<g filter="url(#filter1_d_462_2238)">
<path d="M16.9068 37.7125L45.1116 8L170.301 8L161.89 15.9233H106.964L101.026 9.98084H65.8941L25.3188 51.0832V71.882L16.9068 79.3101V37.7125Z" fill="#222222"/>
<path d="M429.093 37.7125L400.888 8L275.699 8L284.11 15.9233H339.036L344.974 9.98084H380.106L420.681 51.0832V71.882L429.093 79.3101V37.7125Z" fill="#222222"/>
<path d="M20.8654 80.7957L27.7929 73.3676V52.5688L67.3786 12.4569H96.5731L98.0575 14.4377H68.3682L29.7722 53.5592L29.2773 74.358L22.8446 80.7957V110.508L20.8654 112.489V80.7957Z" fill="#222222"/>
<path d="M425.135 80.7957L418.207 73.3676V52.5688L378.621 12.4569H349.427L347.942 14.4377H377.632L416.228 53.5592L416.723 74.358L423.155 80.7957V110.508L425.135 112.489V80.7957Z" fill="#222222"/>
<path d="M71.6677 32.6405L73.767 34.7415L48.0806 59.997L48.2004 56.4106L71.6677 32.6405Z" fill="#222222"/>
<path d="M374.332 32.6405L372.233 34.7415L397.919 59.997L397.8 56.4106L374.332 32.6405Z" fill="#222222"/>
<path d="M71.6677 530.166L73.767 528.065L48.0806 502.809L48.2004 506.396L71.6677 530.166Z" fill="#222222"/>
<path d="M374.332 530.166L372.233 528.065L397.919 502.809L397.8 506.396L374.332 530.166Z" fill="#222222"/>
<path d="M35.2152 105.061V53.5592L38.6789 50.588V106.051L10.9689 132.793V162.505L15.4223 166.962V217.473L21.855 224.406V337.809L15.4223 344.742V395.516L10.9689 399.71V428.928L38.6789 456.659V511.628L34.7204 508.656L35.2152 457.155L8.49482 430.909V399.215L13.9379 393.768V344.742L11.9586 343.257V333.848L18.3913 326.915V235.301L11.4638 227.873V219.454L13.9379 216.978V167.953L8.49482 162.505V131.307L35.2152 105.061Z" fill="#222222"/>
<path d="M410.785 105.061V53.5592L407.321 50.588V106.051L435.031 132.793V162.505L430.578 166.962V217.473L424.145 224.406V337.809L430.578 344.742V395.516L435.031 399.71V428.928L407.321 456.659V511.628L411.28 508.656L410.785 457.155L437.505 430.909V399.215L432.062 393.768V344.742L434.041 343.257V333.848L427.609 326.915V235.301L434.536 227.873V219.454L432.062 216.978V167.953L437.505 162.505V131.307L410.785 105.061Z" fill="#222222"/>
<path d="M26.8032 152.601V154.582L23.3395 158.048V210.541L26.8032 214.007V215.988L21.855 211.531V158.048L26.8032 152.601Z" fill="#222222"/>
<path d="M419.197 152.601V154.582L422.661 158.048V210.541L419.197 214.007V215.988L424.145 211.531V158.048L419.197 152.601Z" fill="#222222"/>
<path d="M21.855 350.375L26.8032 345.733V347.713L23.3395 350.685V404.167L26.8032 407.139V409.119L21.855 404.663V350.375Z" fill="#222222"/>
<path d="M424.145 350.375L419.197 345.733V347.713L422.661 350.685V404.167L419.197 407.139V409.119L424.145 404.663V350.375Z" fill="#222222"/>
<path d="M10.4741 450.717L15.4223 446.755V452.203L10.4741 456.164V450.717Z" fill="#222222"/>
<path d="M435.526 450.717L430.578 446.755V452.203L435.526 456.164V450.717Z" fill="#222222"/>
<path d="M10.4741 111.004L15.4223 114.965V109.518L10.4741 105.556V111.004Z" fill="#222222"/>
<path d="M435.526 111.004L430.578 114.965V109.518L435.526 105.556V111.004Z" fill="#222222"/>
<path d="M10.4741 460.621L15.4223 456.659V462.107L10.4741 466.068V460.621Z" fill="#222222"/>
<path d="M435.526 460.621L430.578 456.659V462.107L435.526 466.068V460.621Z" fill="#222222"/>
<path d="M10.4741 101.099L15.4223 105.061V99.6137L10.4741 95.652V101.099Z" fill="#222222"/>
<path d="M435.526 101.099L430.578 105.061V99.6137L435.526 95.652V101.099Z" fill="#222222"/>
<path d="M9.97929 472.011L15.4223 467.554V477.458L11.9586 480.925V524.008L41.6479 553.721H39.1738L9.97929 524.503V472.011Z" fill="#222222"/>
<path d="M436.021 472.011L430.578 467.554V477.458L434.041 480.925V524.008L404.352 553.721H406.826L436.021 524.503V472.011Z" fill="#222222"/>
<path d="M9.97929 89.7095L15.4223 94.1664V84.2622L11.9586 80.7957V37.7125L41.6479 8H39.1738L9.97929 37.2173V89.7095Z" fill="#222222"/>
<path d="M436.021 89.7095L430.578 94.1664V84.2622L434.041 80.7957V37.7125L404.352 8H406.826L436.021 37.2173V89.7095Z" fill="#222222"/>
<path d="M8.49482 530.23H9.48446V554H8.49482V530.23Z" fill="#222222"/>
<path d="M437.505 530.23H436.516V554H437.505V530.23Z" fill="#222222"/>
<path d="M17.9757 538.849L20.7069 541.901V554H17.9757V538.849Z" fill="#222222"/>
<path d="M428.024 538.849L425.293 541.901V554H428.024V538.849Z" fill="#222222"/>
<path d="M16.9068 482.716L24.8239 490.334V511.133L65.8941 551.74H101.521L107.115 546.049L161.598 545.538L169.341 554H45.6064L16.9068 524.503V482.716Z" fill="#222222"/>
<path d="M429.093 482.716L421.176 490.334V511.133L380.106 551.74H344.479L338.885 546.049L284.402 545.538L276.659 554H400.394L429.093 524.503V482.716Z" fill="#222222"/>
<path d="M21.3602 450.222L22.8446 451.707V480.43L29.7722 487.858V508.656L68.3682 547.283H98.5524L97.5627 549.264H67.3786L27.298 509.152V487.858L21.3602 481.915V450.222Z" fill="#222222"/>
<path d="M424.64 450.222L423.155 451.707V480.43L416.228 487.858V508.656L377.632 547.283H347.448L348.437 549.264H378.621L418.702 509.152V487.858L424.64 481.915V450.222Z" fill="#222222"/>
<path d="M169.807 547.778H275.699L274.709 549.759H171.291L169.807 547.778Z" fill="#222222"/>
<path d="M169.807 11.9617H275.699L274.709 13.9423H171.291L169.807 11.9617Z" fill="#222222"/>
<path d="M8 8H8.98964V31.2748L8 32.7605V8Z" fill="#222222"/>
<path d="M438 8H437.01V31.2748L438 32.7605V8Z" fill="#222222"/>
<path d="M17.8964 8H20.8654V19.885L17.8964 22.8563V8Z" fill="#222222"/>
<path d="M428.104 8H425.135V19.885L428.104 22.8563V8Z" fill="#222222"/>
<path d="M39.1738 8H41.6479L11.4638 38.703V80.3005L15.4223 84.7574V94.6616L9.97929 90.2047V38.2078L39.1738 8Z" fill="#222222"/>
<path d="M406.826 8H404.352L434.536 38.703V80.3005L430.578 84.7574V94.6616L436.021 90.2047V38.2078L406.826 8Z" fill="#222222"/>
</g>
<rect x="10.375" y="116.76" width="0.591466" height="5.9425" fill="white"/>
<rect width="0.591461" height="5.94251" transform="matrix(-1 0 0 1 435.436 114.036)" fill="white"/>
<rect width="0.591466" height="5.9425" transform="matrix(1 0 0 -1 10.375 447.392)" fill="white"/>
<rect x="435.539" y="447.392" width="0.591461" height="5.9425" transform="rotate(180 435.539 447.392)" fill="white"/>
<path d="M22.2284 128.347V141.857C20.5409 143.347 17.166 147.353 17.166 151.462" stroke="white"/>
<path d="M423.582 125.623V139.133C425.27 140.623 428.645 144.629 428.645 148.738" stroke="white"/>
<path d="M22.2284 435.805V422.294C20.5409 420.805 17.166 416.799 17.166 412.689" stroke="white"/>
<path d="M423.686 435.805V422.294C425.373 420.805 428.748 416.799 428.748 412.689" stroke="white"/>
<defs>
<filter id="filter0_d_462_2238" x="25.8076" y="24.1849" width="394.388" height="513.63" filterUnits="userSpaceOnUse" color-interpolation-filters="sRGB">
<feFlood flood-opacity="0" result="BackgroundImageFix"/>
<feColorMatrix in="SourceAlpha" type="matrix" values="0 0 0 0 0 0 0 0 0 0 0 0 0 0 0 0 0 0 127 0" result="hardAlpha"/>
<feOffset/>
<feGaussianBlur stdDeviation="5"/>
<feComposite in2="hardAlpha" operator="out"/>
<feColorMatrix type="matrix" values="0 0 0 0 0.415686 0 0 0 0 0.145098 0 0 0 0 1 0 0 0 1 0"/>
<feBlend mode="normal" in2="BackgroundImageFix" result="effect1_dropShadow_462_2238"/>
<feBlend mode="normal" in="SourceGraphic" in2="effect1_dropShadow_462_2238" result="shape"/>
</filter>
<filter id="filter1_d_462_2238" x="0" y="0" width="446" height="562" filterUnits="userSpaceOnUse" color-interpolation-filters="sRGB">
<feFlood flood-opacity="0" result="BackgroundImageFix"/>
<feColorMatrix in="SourceAlpha" type="matrix" values="0 0 0 0 0 0 0 0 0 0 0 0 0 0 0 0 0 0 127 0" result="hardAlpha"/>
<feOffset/>
<feGaussianBlur stdDeviation="4"/>
<feComposite in2="hardAlpha" operator="out"/>
<feColorMatrix type="matrix" values="0 0 0 0 0.415686 0 0 0 0 0.145098 0 0 0 0 1 0 0 0 0.4 0"/>
<feBlend mode="normal" in2="BackgroundImageFix" result="effect1_dropShadow_462_2238"/>
<feBlend mode="normal" in="SourceGraphic" in2="effect1_dropShadow_462_2238" result="shape"/>
</filter>
</defs>
</svg>
