<svg width="48" height="18" viewBox="0 0 48 18" fill="none" xmlns="http://www.w3.org/2000/svg">
<path d="M28.9399 16.3713C40.732 16.0187 47.8984 12.6529 47.8984 8.55277C47.8984 4.44177 40.6933 1.07228 28.8665 0.734236C28.1471 0.0218081 27.9112 0.025443 27.5515 0.025443L6.00953 0.025442C5.08906 0.025442 3.1205 0.828741 2.75696 1.87921L1.66245 1.87921L1.66245 0.988673C1.66245 0.443448 1.29118 -2.03727e-06 0.830944 -2.05739e-06C0.370712 -2.0775e-06 -0.000568409 0.443448 -0.000568433 0.988673L-0.000569094 16.1096C-0.000569118 16.6548 0.370712 17.0983 0.830943 17.0983C1.29118 17.0983 1.66245 16.6548 1.66245 16.1096L1.66245 15.2627L2.76083 15.2627C3.13597 16.3059 5.0968 17.1055 6.00953 17.1055L27.5515 17.1055C27.8996 17.1055 28.151 17.1455 28.9399 16.3713ZM30.2781 14.8992L30.2781 1.99916C39.1269 1.99916 46.5448 5.44135 46.5448 8.54186C46.5448 11.9841 40.7436 14.6364 30.2781 14.8992ZM0.792266 15.0046L0.792267 2.1809C0.792267 2.04641 0.905277 1.87921 1.04837 1.87921C1.19147 1.87921 1.31051 2.04641 1.31051 2.1809L1.31051 15.0046C1.31051 15.1391 1.19449 15.2481 1.05139 15.2481C0.908294 15.2481 0.792266 15.1391 0.792266 15.0046ZM6.17583 15.5426C5.83936 15.5426 5.56477 15.2845 5.56477 14.9683L5.56477 2.1809C5.56477 1.86467 5.83936 1.63567 6.17583 1.63567L27.1029 1.63568C27.4394 1.63568 27.7139 1.86467 27.7139 2.1809L27.7139 14.9683C27.7139 15.2845 27.4394 15.5426 27.1029 15.5426L6.17583 15.5426Z" fill="#D1F800"/>
</svg>
