<svg width="974" height="551" viewBox="0 0 974 551" fill="none" xmlns="http://www.w3.org/2000/svg">
<g filter="url(#filter0_d_462_2277)">
<path d="M125.577 25.404L304.251 25.4049L307.033 26.271H353.968L360.155 31.2353H404.968L431.491 45.7148H479.65H541.552L567.126 31.1266H619.182L624.911 26.262H677.426L681.078 25.0315L847.477 25.0315L914.82 95.6453V155.761L895.354 189.475V213.141L885.157 223.466V298.982L894.054 307.791V370.135L915.997 411.35V457.436L877.818 498.645L848.756 528.979H568.586L539.456 511.263H434.787L404.967 528.996H125.159L57.7064 457.36V394.503L77.3911 360.616L77.1787 308.284L86.606 299.008V224.15L76.2492 213.838V189.93L57.4862 158.184L57.041 95.1604L125.577 25.404Z" fill="black"/>
<path d="M19.0524 122.897C20.0998 121.862 20.1096 120.174 19.0742 119.126C18.0388 118.079 16.3504 118.069 15.303 119.105C14.2556 120.14 14.2459 121.828 15.2813 122.876C16.3166 123.923 18.005 123.933 19.0524 122.897ZM17.6777 86.501L17.3254 86.1462L17.1807 86.2899L17.1778 86.4937L17.6777 86.501ZM93.5493 14.8964C94.5967 13.861 94.6065 12.1726 93.5711 11.1252C92.5357 10.0778 90.8473 10.0681 89.7999 11.1034C88.7525 12.1388 88.7428 13.8272 89.7782 14.8746C90.8135 15.922 92.5019 15.9318 93.5493 14.8964ZM17.6777 121.008L18.1777 86.5082L17.1778 86.4937L16.6778 120.994L17.6777 121.008ZM18.0301 86.8557L92.027 13.3547L91.3223 12.6452L17.3254 86.1462L18.0301 86.8557Z" fill="#D1F800"/>
<path d="M953.983 122.897C952.935 121.862 952.926 120.174 953.961 119.126C954.996 118.079 956.685 118.069 957.732 119.105C958.78 120.14 958.789 121.828 957.754 122.876C956.719 123.923 955.03 123.933 953.983 122.897ZM955.357 86.501L955.71 86.1462L955.854 86.2899L955.857 86.4937L955.357 86.501ZM879.486 14.8964C878.438 13.861 878.429 12.1726 879.464 11.1252C880.499 10.0778 882.188 10.0681 883.235 11.1034C884.283 12.1388 884.292 13.8272 883.257 14.8746C882.222 15.922 880.533 15.9318 879.486 14.8964ZM955.357 121.008L954.857 86.5082L955.857 86.4937L956.357 120.994L955.357 121.008ZM955.005 86.8557L881.008 13.3547L881.713 12.6452L955.71 86.1462L955.005 86.8557Z" fill="#D1F800"/>
<path d="M19.2341 428.105C20.2815 429.14 20.2912 430.828 19.2559 431.876C18.2205 432.923 16.5321 432.933 15.4847 431.897C14.4373 430.862 14.4275 429.174 15.4629 428.126C16.4983 427.079 18.1867 427.069 19.2341 428.105ZM17.8594 464.501L17.507 464.856L17.3624 464.712L17.3594 464.508L17.8594 464.501ZM93.731 536.106C94.7784 537.141 94.7881 538.829 93.7528 539.877C92.7174 540.924 91.029 540.934 89.9816 539.899C88.9342 538.863 88.9244 537.175 89.9598 536.127C90.9952 535.08 92.6836 535.07 93.731 536.106ZM17.8593 429.994L18.3593 464.494L17.3594 464.508L16.8594 430.008L17.8593 429.994ZM18.2117 464.146L92.2086 537.647L91.5039 538.357L17.507 464.856L18.2117 464.146Z" fill="#D1F800"/>
<path d="M953.301 428.105C952.254 429.14 952.244 430.828 953.279 431.876C954.315 432.923 956.003 432.933 957.05 431.897C958.098 430.862 958.108 429.174 957.072 428.126C956.037 427.079 954.348 427.069 953.301 428.105ZM955.176 464.501L955.528 464.856L955.676 464.709L955.676 464.501L955.176 464.501ZM879.304 536.106C878.257 537.141 878.247 538.829 879.282 539.877C880.318 540.924 882.006 540.934 883.054 539.899C884.101 538.863 884.111 537.175 883.075 536.127C882.04 535.08 880.352 535.07 879.304 536.106ZM954.676 430.001L954.676 464.501L955.676 464.501L955.676 430.001L954.676 430.001ZM954.823 464.146L880.827 537.647L881.531 538.357L955.528 464.856L954.823 464.146Z" fill="#D1F800"/>
<path d="M849.443 21L918.734 93.2799V157.928L900.342 189.803V370.278L919.162 406.812V457.373L879.961 498.957L878.557 497.728L916.168 457.373V412.928L893.499 370.278L895.598 189.803L915.028 155.951V95.9269L847.644 25.1396H681.459L677.738 26.3815H625.237L619.449 31.349H567.361L541.91 45.8377H494.005V34.9173H541.91L565.007 21H849.443Z" fill="white"/>
<path d="M868.65 508.146L849.015 528.755H569.015L539.771 511.247H479.464L479.462 516.634H539.771L564.579 531H849.443L870.017 509.405C869.534 508.954 869.068 508.524 868.65 508.146Z" fill="white"/>
<path d="M124.881 21L55.5898 93.2799V157.928L73.9819 189.803V360.85L55.1621 392.725V457.373L95.3681 500.023L95.9379 500.621L97.2695 499.325L96.6513 498.676L58.1562 457.373V394.807L77.899 360.85L76.6588 189.803L58.1562 157.928V94.6268L125.853 25.5536H304.441L307.334 26.3815H354.048L360.249 31.349H405.309L431.767 45.8377H480.319V34.9173H432.414L409.317 21H124.881Z" fill="white"/>
<path d="M105.737 508.212L104.497 509.606L124.881 531H409.745L434.553 516.634H479.464V511.247H434.553L404.896 528.755H125.309L105.737 508.212Z" fill="white"/>
<path d="M76.6588 213.078L86.9937 223.427V299.182L76.2454 309.945V305.391L83.2731 298.768V227.567L76.6588 220.529V213.078Z" fill="white"/>
<path d="M895.598 213.078L885.263 223.427V299.182L896.012 309.945V305.391L888.984 298.768V227.567L895.598 220.529V213.078Z" fill="white"/>
</g>
<defs>
<filter id="filter0_d_462_2277" x="-10" y="0.333252" width="993.036" height="550.335" filterUnits="userSpaceOnUse" color-interpolation-filters="sRGB">
<feFlood flood-opacity="0" result="BackgroundImageFix"/>
<feColorMatrix in="SourceAlpha" type="matrix" values="0 0 0 0 0 0 0 0 0 0 0 0 0 0 0 0 0 0 127 0" result="hardAlpha"/>
<feOffset/>
<feGaussianBlur stdDeviation="5"/>
<feComposite in2="hardAlpha" operator="out"/>
<feColorMatrix type="matrix" values="0 0 0 0 1 0 0 0 0 1 0 0 0 0 1 0 0 0 1 0"/>
<feBlend mode="normal" in2="BackgroundImageFix" result="effect1_dropShadow_462_2277"/>
<feBlend mode="normal" in="SourceGraphic" in2="effect1_dropShadow_462_2277" result="shape"/>
</filter>
</defs>
</svg>
